<svg xmlns="http://www.w3.org/2000/svg" viewBox="0 0 1440 320">
  <path fill="#16161d" fill-opacity="1" d="M0,128L30,112C60,96,120,64,180,64C240,64,300,96,360,101.3C420,107,480,85,540,117.3C600,149,660,235,720,250.7C780,267,840,213,900,160C960,107,1020,53,1080,48C1140,43,1200,85,1260,117.3C1320,149,1380,171,1410,181.3L1440,192L1440,0L1410,0C1380,0,1320,0,1260,0C1200,0,1140,0,1080,0C1020,0,960,0,900,0C840,0,780,0,720,0C660,0,600,0,540,0C480,0,420,0,360,0C300,0,240,0,180,0C120,0,60,0,30,0L0,0Z"></path>
</svg>